<?xml version="1.0" encoding="UTF-8" standalone="no"?>
<!-- Created with Inkscape (http://www.inkscape.org/) -->

<svg
   xmlns:dc="http://purl.org/dc/elements/1.1/"
   xmlns:cc="http://creativecommons.org/ns#"
   xmlns:rdf="http://www.w3.org/1999/02/22-rdf-syntax-ns#"
   xmlns:svg="http://www.w3.org/2000/svg"
   xmlns="http://www.w3.org/2000/svg"
   xmlns:sodipodi="http://sodipodi.sourceforge.net/DTD/sodipodi-0.dtd"
   xmlns:inkscape="http://www.inkscape.org/namespaces/inkscape"
   width="7in"
   height="2.875in"
   viewBox="0 0 177.8 73.025002"
   version="1.1"
   id="svg8"
   sodipodi:docname="pi_zero_laser_cut.svg"
   inkscape:version="0.92.1 r15371">
  <defs
     id="defs2">
    <inkscape:path-effect
       effect="bspline"
       id="path-effect4562"
       is_visible="true"
       weight="33.333333"
       steps="2"
       helper_size="0"
       apply_no_weight="true"
       apply_with_weight="true"
       only_selected="false" />
    <inkscape:path-effect
       effect="bspline"
       id="path-effect4558"
       is_visible="true"
       weight="33.333333"
       steps="2"
       helper_size="0"
       apply_no_weight="true"
       apply_with_weight="true"
       only_selected="false" />
    <inkscape:path-effect
       effect="bspline"
       id="path-effect4554"
       is_visible="true"
       weight="33.333333"
       steps="2"
       helper_size="0"
       apply_no_weight="true"
       apply_with_weight="true"
       only_selected="false" />
  </defs>
  <sodipodi:namedview
     id="base"
     pagecolor="#ffffff"
     bordercolor="#666666"
     borderopacity="1.0"
     inkscape:pageopacity="0.0"
     inkscape:pageshadow="2"
     inkscape:zoom="1.1672393"
     inkscape:cx="373.38889"
     inkscape:cy="18.486393"
     inkscape:document-units="mm"
     inkscape:current-layer="layer1"
     showgrid="false"
     units="in"
     inkscape:snap-bbox="true"
     inkscape:snap-bbox-midpoints="true"
     showguides="true"
     inkscape:guide-bbox="true"
     inkscape:bbox-paths="false"
     inkscape:snap-bbox-edge-midpoints="true"
     inkscape:bbox-nodes="false"
     inkscape:window-width="1920"
     inkscape:window-height="1023"
     inkscape:window-x="0"
     inkscape:window-y="31"
     inkscape:window-maximized="1"
     inkscape:snap-smooth-nodes="true"
     inkscape:snap-intersection-paths="true"
     inkscape:snap-midpoints="true" />
  <metadata
     id="metadata5">
    <rdf:RDF>
      <cc:Work
         rdf:about="">
        <dc:format>image/svg+xml</dc:format>
        <dc:type
           rdf:resource="http://purl.org/dc/dcmitype/StillImage" />
        <dc:title />
      </cc:Work>
    </rdf:RDF>
  </metadata>
  <g
     inkscape:label="Layer 1"
     inkscape:groupmode="layer"
     id="layer1"
     transform="translate(0,-223.97499)">
    <g
       id="g4588"
       transform="translate(33.322544,1.7332884)">
      <circle
         r="1.3671257"
         cy="247.43443"
         cx="23.812941"
         id="path4491"
         style="opacity:0.97000002;fill:none;fill-opacity:1;stroke:#000000;stroke-width:0.01574848;stroke-miterlimit:4;stroke-dasharray:none;stroke-dashoffset:0;stroke-opacity:1" />
      <circle
         style="opacity:0.97000002;fill:none;fill-opacity:1;stroke:#000000;stroke-width:0.01574848;stroke-miterlimit:4;stroke-dasharray:none;stroke-dashoffset:0;stroke-opacity:1"
         id="circle4493"
         cx="23.576759"
         cy="270.28598"
         r="1.3671257" />
      <circle
         r="1.3671257"
         cy="247.70171"
         cx="81.602158"
         id="circle4495"
         style="opacity:0.97000002;fill:none;fill-opacity:1;stroke:#000000;stroke-width:0.01574848;stroke-miterlimit:4;stroke-dasharray:none;stroke-dashoffset:0;stroke-opacity:1" />
      <circle
         style="opacity:0.97000002;fill:none;fill-opacity:1;stroke:#000000;stroke-width:0.01574848;stroke-miterlimit:4;stroke-dasharray:none;stroke-dashoffset:0;stroke-opacity:1"
         id="circle4497"
         cx="81.334885"
         cy="270.45984"
         r="1.3671257" />
      <circle
         r="1.9922053"
         cy="234.55496"
         cx="8.1645536"
         id="path4507"
         style="opacity:0.97000002;fill:none;fill-opacity:1;stroke:#000000;stroke-width:0.01558939;stroke-miterlimit:4;stroke-dasharray:none;stroke-dashoffset:0;stroke-opacity:1" />
      <circle
         style="opacity:0.97000002;fill:none;fill-opacity:1;stroke:#000000;stroke-width:0.01558939;stroke-miterlimit:4;stroke-dasharray:none;stroke-dashoffset:0;stroke-opacity:1"
         id="circle4509"
         cx="8.1645536"
         cy="283.33929"
         r="1.9922053" />
      <circle
         r="1.9922053"
         cy="283.33929"
         cx="97.014366"
         id="circle4511"
         style="opacity:0.97000002;fill:none;fill-opacity:1;stroke:#000000;stroke-width:0.01558939;stroke-miterlimit:4;stroke-dasharray:none;stroke-dashoffset:0;stroke-opacity:1" />
      <circle
         style="opacity:0.97000002;fill:none;fill-opacity:1;stroke:#000000;stroke-width:0.01558939;stroke-miterlimit:4;stroke-dasharray:none;stroke-dashoffset:0;stroke-opacity:1"
         id="circle4513"
         cx="97.014366"
         cy="234.55496"
         r="1.9922053" />
      <path
         sodipodi:nodetypes="cccccccsscscsscsccscsccsccsc"
         inkscape:connector-curvature="0"
         d="m 93.84092,231.38152 c -2.473369,2.26522 -5.36409,6.87564 -15.876462,12.56561 v 7 h -50.75 l -1e-6,-7 C 16.702085,238.25716 13.811364,233.64674 11.337995,231.38152 m -10e-7,0 c -0.812155,-0.81215 -1.9341352,-1.31448 -3.1734404,-1.31448 -2.4786107,0 -4.487923,2.00931 -4.4879255,4.48792 -1.3e-6,1.2393 0.6304807,2.25077 1.3144821,3.17344 5.1696028,6.97346 8.8647998,13.55337 8.8647998,21.21873 0,7.66535 -3.695165,14.24476 -8.8647979,21.21872 -0.6839712,0.92269 -1.3144825,1.93413 -1.314484,3.17344 -3e-6,2.47861 2.0093109,4.48793 4.4879255,4.48793 1.2393072,0 2.3612894,-0.50233 3.1734434,-1.31448 4.329829,-4.49669 7.657812,-7.95866 10.544469,-9.97589 2.886658,-2.01723 5.331991,-2.58972 5.331991,-2.58972 h 50.750001 c 1.55463,0 2.445333,0.57249 5.331991,2.58972 2.886657,2.01723 6.21464,5.4792 10.544469,9.97589 0.812154,0.81215 1.934136,1.31448 3.173443,1.31448 2.478615,0 4.487929,-2.00932 4.487929,-4.48793 -1e-5,-1.23931 -0.63052,-2.25075 -1.31449,-3.17344 -5.16963,-6.97396 -8.864795,-13.55337 -8.864795,-21.21872 0,-7.66536 3.695197,-14.24527 8.864795,-21.21873 0.68401,-0.92267 1.31449,-1.93414 1.31449,-3.17344 -1e-5,-2.47861 -2.009318,-4.48792 -4.487929,-4.48792 -1.239305,0 -2.361285,0.50233 -3.17344,1.31448"
         style="fill:none;stroke:#000000;stroke-width:0.0254;stroke-linecap:butt;stroke-linejoin:miter;stroke-miterlimit:4;stroke-dasharray:none;stroke-opacity:1"
         id="path4576" />
    </g>
  </g>
</svg>
